# xmcd
#
# Track frame offsets:
#	150
#	17900
#	34466
#	52331
#	74002
#	93577
#	110355
#	130495
#	152716
#	170211
#	191665
#	204448
#	221670
#	239653
#
# Disc length: 3459 seconds
#
# Revision: 1
# Processed by: cddbd v1.4PL0 Copyright (c) Steve Scherf et al.
# Submitted via: EasyCDDAExtractor 5.0.7
#
DISCID=e30d810e
DTITLE=Chayanne - Simplemente
DYEAR=2000
DGENRE=Pop Castellano
TTITLE0=Simplemente
TTITLE1=Las horas pasan
TTITLE2=Candela
TTITLE3=Yo te amo
TTITLE4=Hasta que el alma resista
TTITLE5=Ay mama
TTITLE6=Cuando un amor se va
TTITLE7=Oye mar
TTITLE8=Mariana mambo
TTITLE9=Quien puso mas
TTITLE10=Mi cafetal
TTITLE11=Te necesito
TTITLE12=Vivo
TTITLE13=Boom boom
EXTD=
EXTT0=
EXTT1=
EXTT2=
EXTT3=
EXTT4=
EXTT5=
EXTT6=
EXTT7=
EXTT8=
EXTT9=
EXTT10=
EXTT11=
EXTT12=
EXTT13=
PLAYORDER=
